#!OML:ASF H:\Terrain\Patient Classification 1\PLAYGROUND\JustinFriday\JustinFriday.ASF
:FULLY-SPECIFIED
:DEGREES
2121
root -14.3361 27.4151 -4.59993 313.288 -3.51177 0.880749
lowerback 37.4948 0.0837671 0.851376
upperback 15.4249 0.420814 1.68465
thorax -1.58488 0.146317 1.1787
lowerneck 4.5293 -7.67929 -10.7025
upperneck 1.858 -10.8596 10.8277
head 0.996091 -5.5398 4.91113
rclavicle 6.80837e-015 -7.95139e-015
rhumerus 45.8291 -24.4874 -74.3459
rradius 89.7078
rwrist -2.07708
rhand -25.7844 3.67864
rfingers 7.12502
rthumb 0.753954 -26.2998
lclavicle 6.80837e-015 -7.95139e-015
lhumerus 41.8826 9.11102 74.7609
lradius 101.873
lwrist -8.44597
lhand -51.6157 -38.4254
lfingers 7.12502
lthumb -24.1391 -9.9241
rfemur -31.6047 0.59313 12.5673
rtibia 31.0406
rfoot 11.669 -11.5192
rtoes 17.3388
lfemur -33.9648 4.75699 -8.45339
ltibia 37.659
lfoot 12.7708 -4.50407
ltoes -4.86343
2122
root -14.3318 27.4159 -4.59312 313.443 -3.78499 0.720881
lowerback 36.9954 0.0742206 1.02306
upperback 15.7793 0.451808 1.78139
thorax -1.03806 0.165822 1.18153
lowerneck 5.25579 -8.1363 -10.2966
upperneck -0.669081 -11.355 10.9383
head 0.175744 -5.81203 4.9659
rclavicle 5.06901e-015 -7.95139e-015
rhumerus 45.9467 -23.8514 -75.3041
rradius 89.2149
rwrist -5.28539
rhand -27.7656 6.20752
rfingers 7.12502
rthumb -1.15949 -23.7691
lclavicle 5.06901e-015 -7.95139e-015
lhumerus 41.5229 8.61187 75.7318
lradius 102.717
lwrist -6.36146
lhand -53.0971 -38.8581
lfingers 7.12502
lthumb -25.5587 -10.5528
rfemur -31.4633 0.796948 12.8973
rtibia 30.8529
rfoot 11.691 -11.6624
rtoes 17.5678
lfemur -34.0863 4.90985 -8.10226
ltibia 38.151
lfoot 12.1054 -5.76188
ltoes -9.10749
2123
root -14.3276 27.4179 -4.59154 313.536 -3.93779 0.554968
lowerback 36.7163 0.0762141 1.11023
upperback 15.8122 0.484959 1.96467
thorax -0.914093 0.177955 1.31705
lowerneck 3.77409 -7.46441 -10.0834
upperneck 1.79355 -10.4401 9.2936
head 0.941002 -5.30313 4.33639
rclavicle 1.44616e-014 -2.38542e-015
rhumerus 45.1362 -23.2009 -75.7066
rradius 90.538
rwrist -7.91686
rhand -28.4177 6.47377
rfingers 7.12502
rthumb -1.78935 -23.4985
lclavicle 1.44616e-014 -2.38542e-015
lhumerus 40.2885 8.16082 76.8133
lradius 103.799
lwrist -3.83093
lhand -54.7509 -42.9915
lfingers 7.12502
lthumb -27.1418 -14.9232
rfemur -31.1917 0.937161 13.1202
rtibia 30.5906
rfoot 12.6451 -11.0379
rtoes 13.4993
lfemur -34.1165 5.19275 -7.95426
ltibia 38.6893
lfoot 11.9295 -6.62833
ltoes -11.1887
2124
root -14.3242 27.4196 -4.59341 313.532 -4.12032 0.349927
lowerback 36.8809 0.00921219 1.42462
upperback 15.3498 0.527745 2.05332
thorax -1.46917 0.211424 1.2294
lowerneck 4.71972 -7.35771 -10.1854
upperneck 1.91541 -10.3837 8.99822
head 0.80895 -5.29679 4.3051
rclavicle -1.3418e-015 -7.95139e-016
rhumerus 43.549 -22.5639 -76.3031
rradius 91.2175
rwrist -10.9692
rhand -28.7503 6.9371
rfingers 7.12502
rthumb -2.11055 -23.0322
lclavicle -1.3418e-015 -7.95139e-016
lhumerus 38.4967 7.1622 77.6911
lradius 104.881
lwrist -0.480982
lhand -55.8252 -50.5498
lfingers 7.12502
lthumb -28.1692 -22.6462
rfemur -30.9478 0.60698 13.5408
rtibia 30.5838
rfoot 11.9916 -11.0254
rtoes 15.1093
lfemur -33.9224 5.39363 -7.70518
ltibia 39.0685
lfoot 12.291 -6.63662
ltoes -10.5446
2125
root -14.3203 27.424 -4.60185 313.516 -4.36681 0.108146
lowerback 37.5424 -0.106221 1.7235
upperback 14.219 0.538156 2.10475
thorax -2.7713 0.219958 1.13326
lowerneck 7.22394 -6.95205 -10.6607
upperneck 1.54349 -10.0809 9.27893
head 0.305925 -5.20588 4.58937
rclavicle -8.52289e-015 -3.18055e-015
rhumerus 40.9641 -21.5328 -76.5117
rradius 93.0936
rwrist -14.6869
rhand -29.0049 6.69268
rfingers 7.12502
rthumb -2.35647 -23.2741
lclavicle -8.52289e-015 -3.18055e-015
lhumerus 35.7724 5.62451 78.0433
lradius 105.876
lwrist 5.22232
lhand -56.1353 -60.605
lfingers 7.12502
lthumb -28.4655 -32.7505
rfemur -30.8121 0.151439 14.0482
rtibia 30.8045
rfoot 11.5513 -11.3981
rtoes 18.5808
lfemur -33.613 5.24534 -7.23342
ltibia 39.2696
lfoot 12.9691 -5.78854
ltoes -7.98789
